<mxfile host="app.diagrams.net" agent="Mozilla/5.0 (X11; Linux x86_64) AppleWebKit/537.36 (KHTML, like Gecko) Chrome/131.0.0.0 Safari/537.36" version="26.0.5">
  <diagram name="PÃ¡gina-1" id="hAk6fSvqmK_Lm6GrOnIN">
    <mxGraphModel dx="1433" dy="819" grid="1" gridSize="10" guides="1" tooltips="1" connect="1" arrows="1" fold="1" page="1" pageScale="1" pageWidth="827" pageHeight="1169" math="0" shadow="0">
      <root>
        <mxCell id="0" />
        <mxCell id="1" parent="0" />
        <mxCell id="YWAamUPn1ENhBFaZzlaJ-1" style="edgeStyle=orthogonalEdgeStyle;rounded=0;orthogonalLoop=1;jettySize=auto;html=1;exitX=0.5;exitY=1;exitDx=0;exitDy=0;entryX=0.5;entryY=0;entryDx=0;entryDy=0;fontFamily=Helvetica;" edge="1" parent="1" source="YWAamUPn1ENhBFaZzlaJ-2" target="YWAamUPn1ENhBFaZzlaJ-5">
          <mxGeometry relative="1" as="geometry" />
        </mxCell>
        <mxCell id="YWAamUPn1ENhBFaZzlaJ-2" value="&lt;b&gt;Pending ( 0 )&lt;/b&gt;" style="rounded=1;whiteSpace=wrap;html=1;fontFamily=Helvetica;" vertex="1" parent="1">
          <mxGeometry x="320" y="80" width="120" height="40" as="geometry" />
        </mxCell>
        <mxCell id="YWAamUPn1ENhBFaZzlaJ-3" value="&lt;b&gt;Returned ( -1 )&lt;/b&gt;" style="rounded=1;whiteSpace=wrap;html=1;fontFamily=Helvetica;" vertex="1" parent="1">
          <mxGeometry x="200" y="160" width="120" height="40" as="geometry" />
        </mxCell>
        <mxCell id="YWAamUPn1ENhBFaZzlaJ-4" style="edgeStyle=orthogonalEdgeStyle;rounded=0;orthogonalLoop=1;jettySize=auto;html=1;exitX=0.5;exitY=1;exitDx=0;exitDy=0;entryX=0.5;entryY=0;entryDx=0;entryDy=0;fontFamily=Helvetica;" edge="1" parent="1" source="YWAamUPn1ENhBFaZzlaJ-5" target="YWAamUPn1ENhBFaZzlaJ-8">
          <mxGeometry relative="1" as="geometry" />
        </mxCell>
        <mxCell id="YWAamUPn1ENhBFaZzlaJ-5" value="&lt;b&gt;Locking&amp;nbsp;&lt;/b&gt;&lt;b&gt;( 1 )&lt;/b&gt;" style="rounded=1;whiteSpace=wrap;html=1;fontFamily=Helvetica;" vertex="1" parent="1">
          <mxGeometry x="320" y="240" width="120" height="40" as="geometry" />
        </mxCell>
        <mxCell id="YWAamUPn1ENhBFaZzlaJ-6" value="&lt;b&gt;Canceled ( -2 )&lt;/b&gt;" style="rounded=1;whiteSpace=wrap;html=1;fontFamily=Helvetica;" vertex="1" parent="1">
          <mxGeometry x="200" y="320" width="120" height="40" as="geometry" />
        </mxCell>
        <mxCell id="YWAamUPn1ENhBFaZzlaJ-7" style="edgeStyle=orthogonalEdgeStyle;rounded=0;orthogonalLoop=1;jettySize=auto;html=1;exitX=0.5;exitY=1;exitDx=0;exitDy=0;entryX=0.5;entryY=0;entryDx=0;entryDy=0;" edge="1" parent="1" source="YWAamUPn1ENhBFaZzlaJ-8" target="YWAamUPn1ENhBFaZzlaJ-10">
          <mxGeometry relative="1" as="geometry" />
        </mxCell>
        <mxCell id="YWAamUPn1ENhBFaZzlaJ-8" value="&lt;b&gt;Shipping&amp;nbsp;&lt;/b&gt;&lt;b&gt;( 2 )&lt;/b&gt;" style="rounded=1;whiteSpace=wrap;html=1;fontFamily=Helvetica;" vertex="1" parent="1">
          <mxGeometry x="320" y="400" width="120" height="40" as="geometry" />
        </mxCell>
        <mxCell id="YWAamUPn1ENhBFaZzlaJ-9" style="edgeStyle=orthogonalEdgeStyle;rounded=0;orthogonalLoop=1;jettySize=auto;html=1;exitX=0.5;exitY=1;exitDx=0;exitDy=0;entryX=0.5;entryY=0;entryDx=0;entryDy=0;" edge="1" parent="1" source="YWAamUPn1ENhBFaZzlaJ-10" target="YWAamUPn1ENhBFaZzlaJ-14">
          <mxGeometry relative="1" as="geometry" />
        </mxCell>
        <mxCell id="YWAamUPn1ENhBFaZzlaJ-10" value="&lt;b&gt;Received ( 3 )&lt;/b&gt;" style="rounded=1;whiteSpace=wrap;html=1;fontFamily=Helvetica;" vertex="1" parent="1">
          <mxGeometry x="320" y="561.5" width="120" height="40" as="geometry" />
        </mxCell>
        <mxCell id="YWAamUPn1ENhBFaZzlaJ-11" style="edgeStyle=orthogonalEdgeStyle;rounded=0;orthogonalLoop=1;jettySize=auto;html=1;exitX=0.5;exitY=1;exitDx=0;exitDy=0;entryX=0;entryY=0.5;entryDx=0;entryDy=0;" edge="1" parent="1" source="YWAamUPn1ENhBFaZzlaJ-12" target="YWAamUPn1ENhBFaZzlaJ-15">
          <mxGeometry relative="1" as="geometry">
            <mxPoint x="260" y="700" as="targetPoint" />
          </mxGeometry>
        </mxCell>
        <mxCell id="YWAamUPn1ENhBFaZzlaJ-12" value="&lt;b&gt;Appealed ( -3 )&lt;/b&gt;" style="rounded=1;whiteSpace=wrap;html=1;fontFamily=Helvetica;" vertex="1" parent="1">
          <mxGeometry x="200" y="480" width="120" height="40" as="geometry" />
        </mxCell>
        <mxCell id="YWAamUPn1ENhBFaZzlaJ-13" style="edgeStyle=orthogonalEdgeStyle;rounded=0;orthogonalLoop=1;jettySize=auto;html=1;exitX=0.5;exitY=1;exitDx=0;exitDy=0;entryX=0.5;entryY=0;entryDx=0;entryDy=0;" edge="1" parent="1" source="YWAamUPn1ENhBFaZzlaJ-14" target="YWAamUPn1ENhBFaZzlaJ-15">
          <mxGeometry relative="1" as="geometry" />
        </mxCell>
        <mxCell id="YWAamUPn1ENhBFaZzlaJ-14" value="&lt;b&gt;Collected ( 4&lt;/b&gt;&lt;b style=&quot;background-color: initial;&quot;&gt;&amp;nbsp;)&lt;/b&gt;" style="rounded=1;whiteSpace=wrap;html=1;fontFamily=Helvetica;" vertex="1" parent="1">
          <mxGeometry x="320" y="640" width="120" height="40" as="geometry" />
        </mxCell>
        <mxCell id="YWAamUPn1ENhBFaZzlaJ-15" value="&lt;b&gt;Finished ( 5&lt;/b&gt;&lt;b style=&quot;background-color: initial;&quot;&gt;&amp;nbsp;)&lt;/b&gt;" style="rounded=1;whiteSpace=wrap;html=1;fontFamily=Helvetica;" vertex="1" parent="1">
          <mxGeometry x="320" y="720" width="120" height="40" as="geometry" />
        </mxCell>
      </root>
    </mxGraphModel>
  </diagram>
</mxfile>
